<svg viewBox="0 0 48 48" fill="none" xmlns="http://www.w3.org/2000/svg">
    <rect width="48" height="48" rx="24" fill="#FE3E0E"/>
    <path d="M21.7611 36.4064C22.8602 36.4064 23.7971 36.3343 24.5719 36.1901C25.3647 36.0459 26.0494 35.8206 26.6259 35.5142C27.5268 35.0456 28.2295 34.3156 28.734 33.3242C29.2566 32.3329 29.5178 31.2244 29.5178 29.9987C29.5178 28.701 29.2295 27.5384 28.653 26.511C28.0944 25.4836 27.3196 24.7266 26.3286 24.2399C26.0584 24.0957 25.7701 23.9786 25.4638 23.8884C25.1755 23.7983 24.8422 23.7262 24.4638 23.6722C24.1034 23.6181 23.698 23.582 23.2476 23.564C22.7971 23.528 22.2746 23.5099 21.68 23.5099H20.9503V36.4064H21.7611Z" fill="white"/>
    <path fill-rule="evenodd" clip-rule="evenodd" d="M25.2476 14.2081H13.2476V26.2081C13.2476 29.7621 14.7926 32.9553 17.2476 35.1526V19.9681H21.8151C25.0764 19.9681 27.5088 20.4908 29.1124 21.5363C30.4458 22.4014 31.4638 23.564 32.1665 25.024C32.8872 26.484 33.2476 28.1422 33.2476 29.9987C33.2476 32.0715 32.8061 33.892 31.9232 35.4601C31.668 35.9082 31.3827 36.3231 31.0673 36.705C34.7533 34.657 37.2476 30.7238 37.2476 26.2081C37.2476 19.5807 31.875 14.2081 25.2476 14.2081ZM21.7611 36.4064C22.8602 36.4064 23.7971 36.3343 24.5719 36.1901C25.3647 36.0459 26.0494 35.8206 26.6259 35.5142C27.5268 35.0456 28.2295 34.3156 28.734 33.3242C29.2566 32.3329 29.5178 31.2244 29.5178 29.9987C29.5178 28.701 29.2295 27.5384 28.653 26.511C28.0944 25.4836 27.3196 24.7266 26.3286 24.2399C26.0584 24.0957 25.7701 23.9786 25.4638 23.8884C25.1755 23.7983 24.8422 23.7262 24.4638 23.6722C24.1034 23.6181 23.698 23.582 23.2476 23.564C22.7971 23.528 22.2746 23.5099 21.68 23.5099H20.9503V36.4064H21.7611Z" fill="white"/>
</svg>
