<svg viewBox="0 0 32 32" fill="none" xmlns="http://www.w3.org/2000/svg">
    <path d="M11.3514 29.5977C12.8168 29.5977 14.0661 29.5016 15.0991 29.3093C16.1562 29.1171 17.0691 28.8167 17.8378 28.4081C19.039 27.7833 19.976 26.8099 20.6486 25.4882C21.3453 24.1664 21.6937 22.6884 21.6937 21.0541C21.6937 19.3238 21.3093 17.7737 20.5405 16.4038C19.7958 15.034 18.7628 14.0246 17.4414 13.3757C17.0811 13.1835 16.6967 13.0273 16.2883 12.9071C15.9039 12.7869 15.4595 12.6908 14.955 12.6187C14.4745 12.5466 13.9339 12.4985 13.3333 12.4745C12.7327 12.4264 12.036 12.4024 11.2432 12.4024H10.2703V29.5977H11.3514Z" fill="#FBFBFB"/>
    <path fill-rule="evenodd" clip-rule="evenodd" d="M16 0H0V16C0 20.7387 2.06 24.9962 5.33333 27.9259V7.68H11.4234C15.7718 7.68 19.015 8.37695 21.1532 9.77083C22.9309 10.9244 24.2883 12.4745 25.2252 14.4211C26.1862 16.3678 26.6667 18.5788 26.6667 21.0541C26.6667 23.8179 26.0781 26.2452 24.9009 28.336C24.5606 28.9334 24.1802 29.4867 23.7596 29.9958C28.6743 27.2651 32 22.0209 32 16C32 7.16344 24.8366 0 16 0ZM11.3514 29.5977C12.8168 29.5977 14.0661 29.5016 15.0991 29.3093C16.1562 29.1171 17.0691 28.8167 17.8378 28.4081C19.039 27.7833 19.976 26.8099 20.6486 25.4882C21.3453 24.1664 21.6937 22.6884 21.6937 21.0541C21.6937 19.3238 21.3093 17.7737 20.5405 16.4038C19.7958 15.034 18.7628 14.0246 17.4414 13.3757C17.0811 13.1835 16.6967 13.0273 16.2883 12.9071C15.9039 12.7869 15.4595 12.6908 14.955 12.6187C14.4745 12.5466 13.9339 12.4985 13.3333 12.4745C12.7327 12.4264 12.036 12.4024 11.2432 12.4024H10.2703V29.5977H11.3514Z" fill="#FBFBFB"/>
</svg>