<svg xmlns="http://www.w3.org/2000/svg">
    <symbol id="hashtag" viewBox="0 0 24 24" fill="none" xmlns="http://www.w3.org/2000/svg">
        <path d="M22 13V9C22 4 20 2 15 2H9C4 2 2 4 2 9V15C2 20 4 22 9 22H15" stroke="currentColor" stroke-width="1.5" stroke-linecap="round" stroke-linejoin="round"/>
        <path d="M19 22V16L17 18" stroke="currentColor" stroke-width="1.5" stroke-linecap="round" stroke-linejoin="round"/>
        <path d="M19 16L21 18" stroke="currentColor" stroke-width="1.5" stroke-linecap="round" stroke-linejoin="round"/>
        <path d="M9.94941 6.26001L8.89941 15.73" stroke="currentColor" stroke-width="1.5" stroke-linecap="round" stroke-linejoin="round"/>
        <path d="M13.1101 6.26001L12.0601 15.73" stroke="currentColor" stroke-width="1.5" stroke-linecap="round" stroke-linejoin="round"/>
        <path d="M6.5293 9.42004H15.9993" stroke="currentColor" stroke-width="1.5" stroke-linecap="round" stroke-linejoin="round"/>
        <path d="M6 12.5798H15.47" stroke="currentColor" stroke-width="1.5" stroke-linecap="round" stroke-linejoin="round"/>
    </symbol>
    <symbol id="dropdown" viewBox="0 0 24 24" fill="none" xmlns="http://www.w3.org/2000/svg">
        <path d="M19.84 8L13.32 14.52C12.55 15.29 11.29 15.29 10.52 14.52L4 8" stroke="currentColor" stroke-width="1.5" stroke-miterlimit="10" stroke-linecap="round" stroke-linejoin="round"/>
    </symbol>
    <symbol id="search" viewBox="0 0 24 24" fill="none" xmlns="http://www.w3.org/2000/svg">
        <g clip-path="url(#clip0_1174_9842)">
            <path d="M11.5 21C16.7467 21 21 16.7467 21 11.5C21 6.25329 16.7467 2 11.5 2C6.25329 2 2 6.25329 2 11.5C2 16.7467 6.25329 21 11.5 21Z" stroke="#FE3E0E" stroke-width="1.5" stroke-linecap="round" stroke-linejoin="round"/>
            <path d="M22 22L20 20" stroke="currentColor" stroke-width="1.5" stroke-linecap="round" stroke-linejoin="round"/>
        </g>
        <defs>
            <clipPath id="clip0_1174_9842">
                <rect width="24" height="24" fill="white"/>
            </clipPath>
        </defs>
    </symbol>
    <symbol id="login" viewBox="0 0 24 24" fill="none" xmlns="http://www.w3.org/2000/svg">
        <path d="M11.6802 14.62L14.2402 12.06L11.6802 9.5" stroke="currentColor" stroke-width="1.5" stroke-miterlimit="10" stroke-linecap="round" stroke-linejoin="round"/>
        <path d="M4 12.0601H14.17" stroke="currentColor" stroke-width="1.5" stroke-miterlimit="10" stroke-linecap="round" stroke-linejoin="round"/>
        <path d="M12 4C16.42 4 20 7 20 12C20 17 16.42 20 12 20" stroke="currentColor" stroke-width="1.5" stroke-miterlimit="10" stroke-linecap="round" stroke-linejoin="round"/>
    </symbol>
    <symbol id="idea" viewBox="0 0 24 24" fill="none" xmlns="http://www.w3.org/2000/svg">
        <path d="M12.0001 7.89001L10.9301 9.75001C10.6901 10.16 10.8901 10.5 11.3601 10.5H12.6301C13.1101 10.5 13.3001 10.84 13.0601 11.25L12.0001 13.11" stroke="currentColor" stroke-width="1.5" stroke-linecap="round" stroke-linejoin="round"/>
        <path d="M8.29986 18.0401V16.8801C5.99986 15.4901 4.10986 12.7801 4.10986 9.90005C4.10986 4.95005 8.65986 1.07005 13.7999 2.19005C16.0599 2.69005 18.0399 4.19005 19.0699 6.26005C21.1599 10.4601 18.9599 14.9201 15.7299 16.8701V18.0301C15.7299 18.3201 15.8399 18.9901 14.7699 18.9901H9.25986C8.15986 19.0001 8.29986 18.5701 8.29986 18.0401Z" stroke="currentColor" stroke-width="1.5" stroke-linecap="round" stroke-linejoin="round"/>
        <path d="M8.5 22C10.79 21.35 13.21 21.35 15.5 22" stroke="currentColor" stroke-width="1.5" stroke-linecap="round" stroke-linejoin="round"/>
    </symbol>
    <symbol id="tag-heart-crossed" viewBox="0 0 48 48" fill="none" xmlns="http://www.w3.org/2000/svg">
        <path d="M0 24C0 10.7452 10.7452 0 24 0C37.2548 0 48 10.7452 48 24C48 37.2548 37.2548 48 24 48H0V24Z" fill="#91C9F6"/>
        <path d="M18.11 29.5C15.9 27.43 14 24.48 14 20.68C14 17.59 16.49 15.09 19.56 15.09C21.38 15.09 22.99 15.97 24 17.33C25.01 15.97 26.63 15.09 28.44 15.09C29.59 15.09 30.66 15.44 31.55 16.05" stroke="white" stroke-width="1.5" stroke-linecap="round" stroke-linejoin="round"/>
        <path d="M33.74 19C33.91 19.53 34 20.1 34 20.69C34 27.69 27.52 31.82 24.62 32.82C24.28 32.94 23.72 32.94 23.38 32.82C22.73 32.6 21.91 32.22 21.02 31.69" stroke="white" stroke-width="1.5" stroke-linecap="round" stroke-linejoin="round"/>
        <path d="M34 14L14 34" stroke="white" stroke-width="1.5" stroke-linecap="round" stroke-linejoin="round"/>
    </symbol>
    <symbol id="tag-heart" viewBox="0 0 48 48" fill="none" xmlns="http://www.w3.org/2000/svg">
        <path d="M0 24C0 10.7452 10.7452 0 24 0C37.2548 0 48 10.7452 48 24C48 37.2548 37.2548 48 24 48H0V24Z" fill="#91C9F6"/>
        <g clip-path="url(#clip0_1282_3760)">
            <path d="M24.62 32.81C24.28 32.93 23.72 32.93 23.38 32.81C20.48 31.82 14 27.69 14 20.69C14 17.6 16.49 15.1 19.56 15.1C21.38 15.1 22.99 15.98 24 17.34C25.01 15.98 26.63 15.1 28.44 15.1C31.51 15.1 34 17.6 34 20.69C34 27.69 27.52 31.82 24.62 32.81Z" stroke="white" stroke-width="1.5" stroke-linecap="round" stroke-linejoin="round"/>
        </g>
        <defs>
            <clipPath id="clip0_1282_3760">
                <rect width="24" height="24" fill="white" transform="translate(12 12)"/>
            </clipPath>
        </defs>
    </symbol>
    <symbol id="circle-star" viewBox="0 0 24 24" fill="none" xmlns="http://www.w3.org/2000/svg">
        <circle cx="12" cy="12" r="12" fill="white" fill-opacity="0.24"/>
        <circle cx="12" cy="12" r="9" fill="white" fill-opacity="0.24"/>
        <circle cx="12" cy="12" r="5" fill="white"/>
    </symbol>
    <symbol id="dislike" viewBox="0 0 24 24" fill="none" xmlns="http://www.w3.org/2000/svg">
        <path d="M16.5202 5.65L13.4202 3.25C13.0202 2.85 12.1202 2.65 11.5202 2.65H7.72022C6.52022 2.65 5.22022 3.55 4.92022 4.75L2.52022 12.05C2.02022 13.45 2.92022 14.65 4.42022 14.65H8.42022C9.02022 14.65 9.52022 15.15 9.42022 15.85L8.92022 19.05C8.72022 19.95 9.32022 20.95 10.2202 21.25C11.0202 21.55 12.0202 21.15 12.4202 20.55L16.5202 14.45" stroke="currentColor" stroke-width="1.5" stroke-miterlimit="10"/>
        <path d="M21.6201 5.65V15.45C21.6201 16.85 21.0201 17.35 19.6201 17.35H18.6201C17.2201 17.35 16.6201 16.85 16.6201 15.45V5.65C16.6201 4.25 17.2201 3.75 18.6201 3.75H19.6201C21.0201 3.75 21.6201 4.25 21.6201 5.65Z" stroke="currentColor" stroke-width="1.5" stroke-linecap="round" stroke-linejoin="round"/>
    </symbol>
    <symbol id="global-search" viewBox="0 0 24 24" fill="none" xmlns="http://www.w3.org/2000/svg">
        <path d="M22 12C22 6.48 17.52 2 12 2C6.48 2 2 6.48 2 12C2 17.52 6.48 22 12 22" stroke="currentColor" stroke-width="1.5" stroke-linecap="round" stroke-linejoin="round"/>
        <path d="M8.0001 3H9.0001C7.0501 8.84 7.0501 15.16 9.0001 21H8.0001" stroke="currentColor" stroke-width="1.5" stroke-linecap="round" stroke-linejoin="round"/>
        <path d="M15 3C15.97 5.92 16.46 8.96 16.46 12" stroke="currentColor" stroke-width="1.5" stroke-linecap="round" stroke-linejoin="round"/>
        <path d="M3 16V15C5.92 15.97 8.96 16.46 12 16.46" stroke="currentColor" stroke-width="1.5" stroke-linecap="round" stroke-linejoin="round"/>
        <path d="M3 8.99998C8.84 7.04998 15.16 7.04998 21 8.99998" stroke="currentColor" stroke-width="1.5" stroke-linecap="round" stroke-linejoin="round"/>
        <path d="M18.2 21.4C19.9673 21.4 21.4 19.9673 21.4 18.2C21.4 16.4327 19.9673 15 18.2 15C16.4327 15 15 16.4327 15 18.2C15 19.9673 16.4327 21.4 18.2 21.4Z" stroke="currentColor" stroke-width="1.5" stroke-linecap="round" stroke-linejoin="round"/>
        <path d="M22 22L21 21" stroke="currentColor" stroke-width="1.5" stroke-linecap="round" stroke-linejoin="round"/>
    </symbol>
    <symbol id="rocket" viewBox="0 0 24 24" fill="none" xmlns="http://www.w3.org/2000/svg">
        <path d="M21.647 2.52244C21.6391 2.48397 21.6203 2.44858 21.5929 2.42042C21.5655 2.39227 21.5306 2.37254 21.4924 2.36353C18.9433 1.7401 13.0549 3.96148 9.86137 7.1527C9.29221 7.71719 8.77322 8.33012 8.31029 8.98456C7.32593 8.8955 6.34156 8.9705 5.50344 9.33612C3.13675 10.3767 2.44816 13.0945 2.25598 14.2612C2.24556 14.3252 2.25001 14.3906 2.26897 14.4526C2.28794 14.5145 2.32091 14.5712 2.36533 14.6184C2.40975 14.6655 2.46443 14.7018 2.52512 14.7244C2.58582 14.747 2.65091 14.7553 2.71535 14.7487L6.51547 14.3315C6.51809 14.6182 6.5353 14.9045 6.56703 15.1893C6.58686 15.3862 6.67471 15.5701 6.81546 15.7092L8.28685 17.1806C8.42609 17.3214 8.6101 17.4093 8.80716 17.429C9.09032 17.4606 9.3749 17.4778 9.65981 17.4806L9.24309 21.2774C9.23659 21.3418 9.24497 21.4067 9.26758 21.4673C9.2902 21.5279 9.32644 21.5825 9.37352 21.6269C9.42059 21.6712 9.47723 21.7042 9.53907 21.7232C9.6009 21.7421 9.66627 21.7466 9.73012 21.7363C10.8973 21.5488 13.6207 20.8602 14.6552 18.494C15.0209 17.6549 15.0958 16.6757 15.0115 15.6961C15.6678 15.2336 16.2825 14.7146 16.8485 14.145C20.0538 10.9575 22.2611 5.1985 21.647 2.52244ZM13.9995 10.0158C13.7195 9.7359 13.5288 9.37926 13.4515 8.99099C13.3743 8.60271 13.4139 8.20024 13.5654 7.83448C13.7168 7.46872 13.9734 7.1561 14.3026 6.93614C14.6317 6.71619 15.0187 6.59879 15.4146 6.59879C15.8105 6.59879 16.1975 6.71619 16.5266 6.93614C16.8558 7.1561 17.1123 7.46872 17.2638 7.83448C17.4153 8.20024 17.4549 8.60271 17.3776 8.99099C17.3004 9.37926 17.1097 9.7359 16.8297 10.0158C16.644 10.2019 16.4235 10.3495 16.1806 10.4503C15.9378 10.551 15.6775 10.6029 15.4146 10.6029C15.1517 10.6029 14.8914 10.551 14.6486 10.4503C14.4057 10.3495 14.1852 10.2019 13.9995 10.0158V10.0158Z" stroke="currentColor" stroke-width="1.49999" stroke-linecap="round" stroke-linejoin="round"/>
        <path d="M5.13984 16.5C4.67256 16.5573 4.23783 16.7692 3.9047 17.1018C3.07877 17.9306 3.00049 20.9999 3.00049 20.9999C3.00049 20.9999 6.07171 20.9216 6.89811 20.0948C7.23212 19.7622 7.44432 19.3267 7.50044 18.8587" stroke="currentColor" stroke-width="1.49999" stroke-linecap="round" stroke-linejoin="round"/>
    </symbol>
    <symbol id="emoji-sad" viewBox="0 0 24 24" fill="none" xmlns="http://www.w3.org/2000/svg">
        <path d="M9 22H15C20 22 22 20 22 15V9C22 4 20 2 15 2H9C4 2 2 4 2 9V15C2 20 4 22 9 22Z" stroke="currentColor" stroke-width="1.5" stroke-linecap="round" stroke-linejoin="round"/>
        <path d="M7 8.75C8 7.75 9.63 7.75 10.64 8.75" stroke="currentColor" stroke-width="1.5" stroke-miterlimit="10" stroke-linecap="round" stroke-linejoin="round"/>
        <path d="M13.3599 8.75C14.3599 7.75 15.9899 7.75 16.9999 8.75" stroke="currentColor" stroke-width="1.5" stroke-miterlimit="10" stroke-linecap="round" stroke-linejoin="round"/>
        <path d="M8.4 17.7H15.6C16.1 17.7 16.5 17.3 16.5 16.8C16.5 14.31 14.49 12.3 12 12.3C9.51 12.3 7.5 14.31 7.5 16.8C7.5 17.3 7.9 17.7 8.4 17.7Z" stroke="currentColor" stroke-width="1.5" stroke-miterlimit="10" stroke-linecap="round" stroke-linejoin="round"/>
    </symbol>
    <symbol id="negative-chat" viewBox="0 0 24 24" fill="none" xmlns="http://www.w3.org/2000/svg">
        <path d="M22 7.42999V13.43C22 14.93 21.5 16.18 20.62 17.06C19.75 17.93 18.5 18.43 17 18.43V20.56C17 21.36 16.11 21.84 15.45 21.4L11 18.43H8.88C8.96 18.13 9 17.82 9 17.5C9 16.48 8.61 15.54 7.97 14.83C7.25 14.01 6.18 13.5 5 13.5C3.88 13.5 2.86 13.96 2.13 14.71C2.04 14.31 2 13.88 2 13.43V7.42999C2 4.42999 4 2.42999 7 2.42999H17C20 2.42999 22 4.42999 22 7.42999Z" stroke="currentColor" stroke-width="1.5" stroke-miterlimit="10" stroke-linecap="round" stroke-linejoin="round"/>
        <path d="M9 17.5C9 17.82 8.96 18.13 8.88 18.43C8.79 18.83 8.63001 19.22 8.42001 19.56C7.73001 20.72 6.46 21.5 5 21.5C3.97 21.5 3.04 21.11 2.34 20.47C2.04 20.21 1.77999 19.9 1.57999 19.56C1.20999 18.96 1 18.25 1 17.5C1 16.42 1.43 15.43 2.13 14.71C2.86 13.96 3.88 13.5 5 13.5C6.18 13.5 7.25 14.01 7.97 14.83C8.61 15.54 9 16.48 9 17.5Z" stroke="currentColor" stroke-width="1.5" stroke-miterlimit="10" stroke-linecap="round" stroke-linejoin="round"/>
        <path d="M6.07019 18.54L3.9502 16.43" stroke="currentColor" stroke-width="1.5" stroke-miterlimit="10" stroke-linecap="round" stroke-linejoin="round"/>
        <path d="M6.05017 16.46L3.93018 18.57" stroke="currentColor" stroke-width="1.5" stroke-miterlimit="10" stroke-linecap="round" stroke-linejoin="round"/>
        <path d="M8.5 10.5H15.5" stroke="currentColor" stroke-width="1.5" stroke-miterlimit="10" stroke-linecap="round" stroke-linejoin="round"/>
    </symbol>
    <symbol id="5-dots" viewBox="0 0 155 155" fill="none" xmlns="http://www.w3.org/2000/svg">
        <path fill-rule="evenodd" clip-rule="evenodd" d="M77.5095 0C93.0547 0 105.656 13.0281 105.656 29.0991C105.656 45.17 93.0547 58.198 77.5095 58.198C61.9643 58.198 49.3628 45.17 49.3628 29.0991C49.3628 13.0281 61.9643 0 77.5095 0ZM30.4871 149.44C17.9109 139.994 15.123 121.797 24.2602 108.795C33.3973 95.793 50.9993 92.9109 63.5756 102.357C76.1518 111.803 78.9396 130.001 69.8028 143.003C60.6655 156.005 43.0633 158.887 30.4871 149.44ZM130.85 108.795C139.987 121.797 137.2 139.994 124.623 149.44C112.047 158.887 94.4447 156.005 85.308 143.003C76.1707 130.001 78.9584 111.803 91.5347 102.357C104.111 92.9109 121.713 95.793 130.85 108.795ZM1.3852 57.037C6.18888 41.7528 22.068 33.3883 36.8522 38.3545C51.6364 43.3207 59.7272 59.7372 54.9235 75.0214C50.1199 90.3056 34.2407 98.6702 19.4565 93.704C4.6723 88.7378 -3.41847 72.3218 1.3852 57.037ZM118.148 38.3545C132.932 33.3883 148.811 41.7528 153.615 57.037C158.418 72.3218 150.328 88.7378 135.544 93.704C120.759 98.6702 104.88 90.3056 100.077 75.0214C95.273 59.7372 103.364 43.3207 118.148 38.3545Z" fill="currentColor"/>
    </symbol>
    <symbol id="status-up" viewBox="0 0 24 24" fill="none" xmlns="http://www.w3.org/2000/svg">
        <g clip-path="url(#clip0_1174_5153)">
            <path d="M6.87988 18.15V16.08" stroke="currentColor" stroke-width="1.5" stroke-linecap="round"/>
            <path d="M12 18.15V14.01" stroke="currentColor" stroke-width="1.5" stroke-linecap="round"/>
            <path d="M17.1201 18.1501V11.9301" stroke="currentColor" stroke-width="1.5" stroke-linecap="round"/>
            <path d="M17.1199 5.84998L16.6599 6.38998C14.1099 9.36998 10.6899 11.48 6.87988 12.43" stroke="currentColor" stroke-width="1.5" stroke-linecap="round"/>
            <path d="M14.1899 5.84998H17.1199V8.76998" stroke="currentColor" stroke-width="1.5" stroke-linecap="round" stroke-linejoin="round"/>
            <path d="M9 22H15C20 22 22 20 22 15V9C22 4 20 2 15 2H9C4 2 2 4 2 9V15C2 20 4 22 9 22Z" stroke="currentColor" stroke-width="1.5" stroke-linecap="round" stroke-linejoin="round"/>
        </g>
        <defs>
            <clipPath id="clip0_1174_5153">
                <rect width="24" height="24" fill="currentColor"/>
            </clipPath>
        </defs>
    </symbol>
    <symbol id="eye" viewBox="0 0 17 16" fill="none" xmlns="http://www.w3.org/2000/svg">
        <g clip-path="url(#clip0_1174_5162)">
            <path d="M10.7714 7.99995C10.7714 9.31995 9.70471 10.3866 8.38471 10.3866C7.06471 10.3866 5.99805 9.31995 5.99805 7.99995C5.99805 6.67995 7.06471 5.61328 8.38471 5.61328C9.70471 5.61328 10.7714 6.67995 10.7714 7.99995Z" stroke="currentColor" stroke-width="1.5" stroke-linecap="round" stroke-linejoin="round"/>
            <path d="M8.38466 13.5138C10.738 13.5138 12.9313 12.1271 14.458 9.72714C15.058 8.78714 15.058 7.20714 14.458 6.26714C12.9313 3.86714 10.738 2.48047 8.38466 2.48047C6.03133 2.48047 3.83799 3.86714 2.31133 6.26714C1.71133 7.20714 1.71133 8.78714 2.31133 9.72714C3.83799 12.1271 6.03133 13.5138 8.38466 13.5138Z" stroke="currentColor" stroke-width="1.5" stroke-linecap="round" stroke-linejoin="round"/>
        </g>
        <defs>
            <clipPath id="clip0_1174_5162">
                <rect width="16" height="16" fill="currentColor" transform="translate(0.384766)"/>
            </clipPath>
        </defs>
    </symbol>
    <symbol id="like" viewBox="0 0 16 16" fill="none" xmlns="http://www.w3.org/2000/svg">
        <path d="M5.37158 12.2336L7.43825 13.8336C7.70492 14.1003 8.30492 14.2336 8.70492 14.2336H11.2382C12.0382 14.2336 12.9049 13.6336 13.1049 12.8336L14.7049 7.96697C15.0382 7.03364 14.4382 6.23364 13.4382 6.23364H10.7716C10.3716 6.23364 10.0382 5.9003 10.1049 5.43364L10.4382 3.3003C10.5716 2.7003 10.1716 2.03364 9.57158 1.83364C9.03825 1.63364 8.37158 1.9003 8.10492 2.3003L5.37158 6.36697" stroke="white" stroke-width="1.5" stroke-miterlimit="10"/>
        <path d="M1.97119 12.2336V5.70026C1.97119 4.76693 2.37119 4.43359 3.30452 4.43359H3.97119C4.90452 4.43359 5.30452 4.76693 5.30452 5.70026V12.2336C5.30452 13.1669 4.90452 13.5003 3.97119 13.5003H3.30452C2.37119 13.5003 1.97119 13.1669 1.97119 12.2336Z" stroke="white" stroke-width="1.5" stroke-linecap="round" stroke-linejoin="round"/>
    </symbol>
    <symbol id="location-tick" viewBox="0 0 16 16" fill="none" xmlns="http://www.w3.org/2000/svg">
        <path d="M2.79807 5.65992C4.1114 -0.113413 12.6647 -0.106746 13.9714 5.66659C14.7381 9.05325 12.6314 11.9199 10.7847 13.6933C9.44473 14.9866 7.32473 14.9866 5.97807 13.6933C4.13807 11.9199 2.0314 9.04659 2.79807 5.65992Z" stroke="currentColor" stroke-width="1.5"/>
        <path d="M6.55127 7.66667L7.55127 8.66667L10.2179 6" stroke="currentColor" stroke-width="1.5" stroke-linecap="round" stroke-linejoin="round"/>
    </symbol>
    <symbol id="presentation-download" viewBox="0 0 56 56" fill="none" xmlns="http://www.w3.org/2000/svg">
        <path d="M8 56H48C52.4183 56 56 52.4183 56 48V12L44 0H8C3.58172 0 0 3.58172 0 8V48C0 52.4183 3.58172 56 8 56Z" fill="#FFE8D9"/>
        <g clip-path="url(#clip0_1254_4872)">
            <path d="M32.44 24.8999C36.04 25.2099 37.51 27.0599 37.51 31.1099V31.2399C37.51 35.7099 35.72 37.4999 31.25 37.4999H24.74C20.27 37.4999 18.48 35.7099 18.48 31.2399V31.1099C18.48 27.0899 19.93 25.2399 23.47 24.9099" stroke="#FF8E3E" stroke-width="1.5" stroke-linecap="round" stroke-linejoin="round"/>
            <path d="M28 18V30.88" stroke="#FF8E3E" stroke-width="1.5" stroke-linecap="round" stroke-linejoin="round"/>
            <path d="M31.3499 28.6499L27.9999 31.9999L24.6499 28.6499" stroke="#FF8E3E" stroke-width="1.5" stroke-linecap="round" stroke-linejoin="round"/>
        </g>
        <path d="M46 12H56L44 0V10C44 11.1046 44.8954 12 46 12Z" fill="#FF8E3E"/>
        <defs>
            <clipPath id="clip0_1254_4872">
                <rect width="24" height="24" fill="white" transform="translate(16 16)"/>
            </clipPath>
        </defs>
    </symbol>
    <symbol id="award" viewBox="0 0 24 24" fill="none" xmlns="http://www.w3.org/2000/svg">
        <path d="M12.5854 16.5V18.6" stroke="white" stroke-width="1.5" stroke-linecap="round" stroke-linejoin="round"/>
        <path d="M7.58545 22H17.5854V21C17.5854 19.9 16.6854 19 15.5854 19H9.58545C8.48545 19 7.58545 19.9 7.58545 21V22V22Z" stroke="white" stroke-width="1.5" stroke-miterlimit="10"/>
        <path d="M6.58545 22H18.5854" stroke="white" stroke-width="1.5" stroke-linecap="round" stroke-linejoin="round"/>
        <path d="M12.4355 16C8.56555 16 5.43555 12.87 5.43555 9V6C5.43555 3.79 7.22555 2 9.43555 2H15.4355C17.6455 2 19.4355 3.79 19.4355 6V9C19.4355 12.87 16.3055 16 12.4355 16Z" stroke="white" stroke-width="1.5" stroke-linecap="round" stroke-linejoin="round"/>
        <path d="M5.90559 11.6501C5.15559 11.4101 4.49559 10.9701 3.97559 10.4501C3.07559 9.4501 2.47559 8.2501 2.47559 6.8501C2.47559 5.4501 3.57559 4.3501 4.97559 4.3501H5.62559C5.42559 4.8101 5.32559 5.3201 5.32559 5.8501V8.8501C5.32559 9.8501 5.53559 10.7901 5.90559 11.6501Z" stroke="white" stroke-width="1.5" stroke-linecap="round" stroke-linejoin="round"/>
        <path d="M18.9653 11.6501C19.7153 11.4101 20.3753 10.9701 20.8953 10.4501C21.7953 9.4501 22.3953 8.2501 22.3953 6.8501C22.3953 5.4501 21.2953 4.3501 19.8953 4.3501H19.2453C19.4453 4.8101 19.5453 5.3201 19.5453 5.8501V8.8501C19.5453 9.8501 19.3353 10.7901 18.9653 11.6501Z" stroke="white" stroke-width="1.5" stroke-linecap="round" stroke-linejoin="round"/>
    </symbol>
    <symbol id="done" viewBox="0 0 32 32" fill="none" xmlns="http://www.w3.org/2000/svg">
        <path d="M13.9868 0.711729C15.0903 -0.232035 16.8977 -0.232035 18.0172 0.711729L20.5443 2.88719C21.0241 3.30308 21.9198 3.639 22.5595 3.639H25.2785C26.9739 3.639 28.3654 5.03065 28.3654 6.72623V9.44555C28.3654 10.0694 28.7012 10.9812 29.1171 11.461L31.2923 13.9884C32.2359 15.0921 32.2359 16.8997 31.2923 18.0194L29.1171 20.5468C28.7012 21.0267 28.3654 21.9224 28.3654 22.5623V25.2816C28.3654 26.9772 26.9739 28.3688 25.2785 28.3688H22.5595C21.9358 28.3688 21.0241 28.7047 20.5443 29.1206L18.0172 31.2961C16.9137 32.2398 15.1063 32.2398 13.9868 31.2961L11.4597 29.1206C10.9799 28.7047 10.0842 28.3688 9.44446 28.3688H6.6775C4.98213 28.3688 3.59065 26.9772 3.59065 25.2816V22.5463C3.59065 21.9224 3.25478 21.0267 2.85493 20.5468L0.695739 18.0034C-0.231913 16.8997 -0.231913 15.1081 0.695739 14.0044L2.85493 11.461C3.25478 10.9812 3.59065 10.0854 3.59065 9.46154V6.71023C3.59065 5.01465 4.98213 3.623 6.6775 3.623H9.44446C10.0682 3.623 10.9799 3.28709 11.4597 2.87119L13.9868 0.711729Z" fill="currentColor"/>
    </symbol>
    <symbol id="heart-search" viewBox="0 0 24 24" fill="none" xmlns="http://www.w3.org/2000/svg">
        <g clip-path="url(#clip0_1174_6165)">
            <path d="M22.117 12.0001C22.437 10.9801 22.627 9.88012 22.627 8.69012C22.627 5.60012 20.137 3.1001 17.067 3.1001C15.247 3.1001 13.637 3.98015 12.627 5.34015C11.617 3.98015 9.99695 3.1001 8.18695 3.1001C5.11695 3.1001 2.62695 5.60012 2.62695 8.69012C2.62695 15.6901 9.10695 19.8201 12.007 20.8201C12.177 20.8801 12.397 20.9101 12.627 20.9101" stroke="currentColor" stroke-width="1.5" stroke-linecap="round" stroke-linejoin="round"/>
            <path d="M18.367 21.0001C20.1343 21.0001 21.567 19.5674 21.567 17.8001C21.567 16.0328 20.1343 14.6001 18.367 14.6001C16.5997 14.6001 15.167 16.0328 15.167 17.8001C15.167 19.5674 16.5997 21.0001 18.367 21.0001Z" stroke="currentColor" stroke-width="1.5" stroke-linecap="round" stroke-linejoin="round"/>
            <path d="M22.167 21.6001L21.167 20.6001" stroke="currentColor" stroke-width="1.5" stroke-linecap="round" stroke-linejoin="round"/>
        </g>
        <defs>
            <clipPath id="clip0_1174_6165">
                <rect width="24" height="24" fill="currentColor" transform="translate(0.626953)"/>
            </clipPath>
        </defs>
    </symbol>
    <symbol id="chevron-right" viewBox="0 0 24 24" fill="none" xmlns="http://www.w3.org/2000/svg">
        <path d="M9 18L15 12L9 6" stroke="currentColor" stroke-width="2" stroke-linecap="round" stroke-linejoin="round"/>
    </symbol>
    <symbol id="chevron-left" viewBox="0 0 24 24" fill="none" xmlns="http://www.w3.org/2000/svg">
        <path d="M15 18L9 12L15 6" stroke="currentColor" stroke-width="2" stroke-linecap="round" stroke-linejoin="round"/>
    </symbol>
    <symbol id="circle-star-1" viewBox="0 0 700 700" fill="none" xmlns="http://www.w3.org/2000/svg">
        <circle cx="108" cy="112" r="12" fill="white" fill-opacity="0.24"/>
        <circle cx="108" cy="112" r="11" stroke="url(#paint0_linear_2304_2977)" stroke-opacity="0.24" stroke-width="2"/>
        <circle cx="108" cy="112" r="9" fill="white" fill-opacity="0.24"/>
        <circle cx="108" cy="112" r="8" stroke="url(#paint1_linear_2304_2977)" stroke-opacity="0.24" stroke-width="2"/>
        <circle cx="108" cy="112" r="5" fill="white"/>
        <circle cx="108" cy="112" r="4" stroke="url(#paint2_linear_2304_2977)" stroke-opacity="0.24" stroke-width="2"/>
        <circle cx="340" cy="340" r="339" transform="matrix(-1 0 0 1 690 10)" stroke="url(#paint3_linear_2304_2977)" stroke-width="2"/>
        <defs>
            <linearGradient id="paint0_linear_2304_2977" x1="119.067" y1="110.667" x2="104.6" y2="123.427" gradientUnits="userSpaceOnUse">
                <stop stop-color="white"/>
                <stop offset="1" stop-color="white" stop-opacity="0.12"/>
            </linearGradient>
            <linearGradient id="paint1_linear_2304_2977" x1="116.3" y1="111" x2="105.45" y2="120.57" gradientUnits="userSpaceOnUse">
                <stop stop-color="white"/>
                <stop offset="1" stop-color="white" stop-opacity="0.12"/>
            </linearGradient>
            <linearGradient id="paint2_linear_2304_2977" x1="112.611" y1="111.444" x2="106.583" y2="116.761" gradientUnits="userSpaceOnUse">
                <stop stop-color="white"/>
                <stop offset="1" stop-color="white" stop-opacity="0.12"/>
            </linearGradient>
            <linearGradient id="paint3_linear_2304_2977" x1="653.556" y1="302.222" x2="243.667" y2="663.756" gradientUnits="userSpaceOnUse">
                <stop stop-color="white"/>
                <stop offset="1" stop-color="white" stop-opacity="0.12"/>
            </linearGradient>
        </defs>
    </symbol>
    <symbol id="circle-star-2" viewBox="0 0 700 700" fill="none" xmlns="http://www.w3.org/2000/svg">
        <circle cx="582" cy="102" r="12" fill="white" fill-opacity="0.24"/>
        <circle cx="582" cy="102" r="11" stroke="url(#paint0_linear_2304_2977)" stroke-opacity="0.24" stroke-width="2"/>
        <circle cx="582" cy="102" r="9" fill="white" fill-opacity="0.24"/>
        <circle cx="582" cy="102" r="8" stroke="url(#paint1_linear_2304_2977)" stroke-opacity="0.24" stroke-width="2"/>
        <circle cx="582" cy="102" r="5" fill="white"/>
        <circle cx="582" cy="102" r="4" stroke="url(#paint2_linear_2304_2977)" stroke-opacity="0.24" stroke-width="2"/>
        <circle cx="63" cy="530" r="12" fill="white" fill-opacity="0.24"/>
        <circle cx="63" cy="530" r="11" stroke="url(#paint3_linear_2304_2977)" stroke-opacity="0.24" stroke-width="2"/>
        <circle cx="63" cy="530" r="9" fill="white" fill-opacity="0.24"/>
        <circle cx="63" cy="530" r="8" stroke="url(#paint4_linear_2304_2977)" stroke-opacity="0.24" stroke-width="2"/>
        <circle cx="63" cy="530" r="5" fill="white"/>
        <circle cx="63" cy="530" r="4" stroke="url(#paint5_linear_2304_2977)" stroke-opacity="0.24" stroke-width="2"/>
        <circle cx="340" cy="340" r="339" transform="matrix(-1 0 0 1 690 10)" stroke="url(#paint6_linear_2304_2977)" stroke-width="2"/>
        <defs>
            <linearGradient id="paint0_linear_2304_2977" x1="593.067" y1="100.667" x2="578.6" y2="113.427" gradientUnits="userSpaceOnUse">
                <stop stop-color="white"/>
                <stop offset="1" stop-color="white" stop-opacity="0.12"/>
            </linearGradient>
            <linearGradient id="paint1_linear_2304_2977" x1="590.3" y1="101" x2="579.45" y2="110.57" gradientUnits="userSpaceOnUse">
                <stop stop-color="white"/>
                <stop offset="1" stop-color="white" stop-opacity="0.12"/>
            </linearGradient>
            <linearGradient id="paint2_linear_2304_2977" x1="586.611" y1="101.444" x2="580.583" y2="106.761" gradientUnits="userSpaceOnUse">
                <stop stop-color="white"/>
                <stop offset="1" stop-color="white" stop-opacity="0.12"/>
            </linearGradient>
            <linearGradient id="paint3_linear_2304_2977" x1="74.0667" y1="528.667" x2="59.6" y2="541.427" gradientUnits="userSpaceOnUse">
                <stop stop-color="white"/>
                <stop offset="1" stop-color="white" stop-opacity="0.12"/>
            </linearGradient>
            <linearGradient id="paint4_linear_2304_2977" x1="71.3" y1="529" x2="60.45" y2="538.57" gradientUnits="userSpaceOnUse">
                <stop stop-color="white"/>
                <stop offset="1" stop-color="white" stop-opacity="0.12"/>
            </linearGradient>
            <linearGradient id="paint5_linear_2304_2977" x1="67.6111" y1="529.444" x2="61.5833" y2="534.761" gradientUnits="userSpaceOnUse">
                <stop stop-color="white"/>
                <stop offset="1" stop-color="white" stop-opacity="0.12"/>
            </linearGradient>
            <linearGradient id="paint6_linear_2304_2977" x1="653.556" y1="302.222" x2="243.667" y2="663.756" gradientUnits="userSpaceOnUse">
                <stop stop-color="white"/>
                <stop offset="1" stop-color="white" stop-opacity="0.12"/>
            </linearGradient>
        </defs>
    </symbol>
    <symbol id="circle-star-3" width="700" height="700" viewBox="0 0 700 700" fill="none" xmlns="http://www.w3.org/2000/svg">
        <circle cx="340" cy="340" r="339" transform="matrix(-1 0 0 1 690 10)" stroke="url(#paint0_linear_2356_2947)" stroke-width="2"/>
        <defs>
            <linearGradient id="paint0_linear_2356_2947" x1="653.556" y1="302.222" x2="243.667" y2="663.756" gradientUnits="userSpaceOnUse">
                <stop stop-color="white"/>
                <stop offset="1" stop-color="white" stop-opacity="0.12"/>
            </linearGradient>
        </defs>
    </symbol>
    <symbol id="tick-square-filled" viewBox="0 0 20 20" fill="none" xmlns="http://www.w3.org/2000/svg">
        <path d="M7.49984 18.3332H12.4998C16.6665 18.3332 18.3332 16.6665 18.3332 12.4998V7.49984C18.3332 3.33317 16.6665 1.6665 12.4998 1.6665H7.49984C3.33317 1.6665 1.6665 3.33317 1.6665 7.49984V12.4998C1.6665 16.6665 3.33317 18.3332 7.49984 18.3332Z" fill="white" stroke="white" stroke-width="1.5" stroke-linecap="round" stroke-linejoin="round"/>
        <path d="M6.4585 9.99993L8.81683 12.3583L13.5418 7.6416" stroke="#1D2128" stroke-width="1.5" stroke-linecap="round" stroke-linejoin="round"/>
    </symbol>
    <symbol id="tick-square" viewBox="0 0 20 20" fill="none" xmlns="http://www.w3.org/2000/svg">
        <path d="M7.49984 18.3332H12.4998C16.6665 18.3332 18.3332 16.6665 18.3332 12.4998V7.49984C18.3332 3.33317 16.6665 1.6665 12.4998 1.6665H7.49984C3.33317 1.6665 1.6665 3.33317 1.6665 7.49984V12.4998C1.6665 16.6665 3.33317 18.3332 7.49984 18.3332Z" fill="white" stroke="white" stroke-width="1.5" stroke-linecap="round" stroke-linejoin="round"/>
    </symbol>
    <symbol id="arrow-right" viewBox="0 0 24 24" fill="none" xmlns="http://www.w3.org/2000/svg">
        <path d="M14.6797 14.12L17.2397 11.56L14.6797 9" stroke="currentColor" stroke-width="1.5" stroke-miterlimit="10" stroke-linecap="round" stroke-linejoin="round"/>
        <path d="M7 11.5601H17.17" stroke="currentColor" stroke-width="1.5" stroke-miterlimit="10" stroke-linecap="round" stroke-linejoin="round"/>
    </symbol>
</svg>